<?xml version="1.0" encoding="utf-8"?>
<!-- Generator: Adobe Illustrator 15.0.0, SVG Export Plug-In . SVG Version: 6.00 Build 0)  -->
<!DOCTYPE svg PUBLIC "-//W3C//DTD SVG 1.1//EN" "http://www.w3.org/Graphics/SVG/1.1/DTD/svg11.dtd">
<svg version="1.1" id="Layer_1" xmlns="http://www.w3.org/2000/svg" xmlns:xlink="http://www.w3.org/1999/xlink" x="0px" y="0px"
	 width="275px" height="79px" viewBox="0 0 275 79" enable-background="new 0 0 275 79" xml:space="preserve">
<g>
	<path fill="#BCBEC0" d="M15.155,32.719c-0.742,0-0.943,0-1.618-0.205c0.205,0.678,0.205,0.879,0.205,1.615v15.848
		c0,4.248,1.954,6.137,6.339,6.137c1.683,0,2.692-0.134,4.852-0.607l-1.279,6.474c-2.09,0.34-3.238,0.47-4.993,0.47
		C10.971,62.45,7.2,58.342,7.2,49.978V34.13c0-0.736,0-0.938,0.205-1.615c-0.677,0.205-0.88,0.205-1.62,0.205H1.738l2.426-6.141
		h1.621c0.739,0,0.942,0,1.62,0.207C7.2,26.111,7.2,25.907,7.2,25.168v-7.891l6.542-1.682v9.572c0,0.739,0,0.943-0.205,1.618
		c0.674-0.207,0.875-0.207,1.618-0.207h8.499v6.141H15.155z"/>
	<path fill="#BCBEC0" d="M26.55,13.502l6.541-0.945v9.102c0,4.453-0.068,5.531-0.471,9.645l0.267,0.067
		c3.038-4.585,5.938-6.269,10.788-6.269c3.917,0,7.151,1.41,9.442,4.109c2.16,2.629,2.9,5.189,2.9,10.653v21.38l-6.538,0.937V39.865
		c0-6.001-2.027-8.428-6.948-8.428c-5.932,0-9.441,3.841-9.441,10.382v19.427l-6.541,0.937V13.502z"/>
	<path fill="#BCBEC0" d="M79.622,31.904c-0.545,0-1.284-0.063-1.487-0.063c-3.169,0-5.596,1.416-7.35,4.315
		c-1.551,2.631-2.09,5.934-2.09,12.478v12.611l-6.538,0.937V26.716l6.538-0.943v3.641c0,1.547-0.133,2.561-0.54,4.715l0.339,0.069
		c2.697-6.54,6.07-9.168,11.529-9.168c0.81,0,1.413,0.072,2.698,0.271L79.622,31.904z"/>
	<path fill="#BCBEC0" d="M112.801,57.595c-4.853,3.511-9.644,5.196-14.838,5.196c-10.854,0-19.077-8.025-19.077-18.68
		c0-10.447,8.159-18.675,18.611-18.675c7.014,0,12.741,3.503,16.112,9.977L89.337,49.707c-0.743,0.472-0.947,0.472-1.686,0.607
		c2.561,4.253,5.73,6.14,10.312,6.14c4.113,0,8.23-1.754,13.421-5.867L112.801,57.595z M99.249,36.964
		c2.224-1.348,2.763-1.618,4.989-2.563c-1.889-1.753-4.114-2.627-6.741-2.627c-6.409,0-11.869,5.528-11.869,11.864
		c0,0.341,0.068,0.945,0.135,1.622c2.627-1.823,3.168-2.229,6.336-4.113L99.249,36.964z"/>
	<path fill="#BCBEC0" d="M147.999,57.595c-4.855,3.511-9.642,5.196-14.834,5.196c-10.858,0-19.083-8.025-19.083-18.68
		c0-10.447,8.162-18.675,18.616-18.675c7.008,0,12.741,3.503,16.11,9.977l-24.274,14.294c-0.739,0.472-0.944,0.472-1.685,0.607
		c2.565,4.253,5.735,6.14,10.316,6.14c4.114,0,8.227-1.754,13.421-5.867L147.999,57.595z M134.444,36.964
		c2.225-1.348,2.765-1.618,4.991-2.563c-1.886-1.753-4.115-2.627-6.738-2.627c-6.409,0-11.871,5.528-11.871,11.864
		c0,0.341,0.069,0.945,0.133,1.622c2.63-1.823,3.169-2.229,6.341-4.113L134.444,36.964z"/>
</g>
<path fill="#7A1600" d="M203.762,58.473l-1.007,0.878c-2.562,2.29-4.995,3.235-8.027,3.235c-6.746,0-11.327-4.925-11.327-12.065
	V26.579l10.314-0.943v22.728c0,2.962,1.483,4.516,4.451,4.516c3.236,0,5.596-2.497,5.596-5.867V26.579l10.319-0.943v35.609
	l-10.521,0.937v-1.617c0-0.743,0.068-1.081,0.409-2.023L203.762,58.473z"/>
<path fill="#7A1600" d="M218.394,26.579l10.318-0.943v2.294c0,1.01-0.067,1.621-0.472,2.967l0.271,0.133
	c1.28-2.09,1.614-2.561,2.224-3.238c1.416-1.614,4.112-2.69,6.605-2.69c0.812,0,1.351,0,2.225,0.066l-2.422,10.85
	c-3.507-0.061-5.197,0.476-6.477,2.029c-1.209,1.479-1.954,3.843-1.954,6.269v16.93l-10.318,0.937V26.579z"/>
<path fill="#7A1600" d="M263.034,58.473l-1.011,0.878c-2.561,2.29-4.99,3.235-8.024,3.235c-6.746,0-11.33-4.925-11.33-12.065V26.579
	l10.317-0.943v22.728c0,2.962,1.479,4.516,4.448,4.516c3.237,0,5.6-2.497,5.6-5.867V25.689l10.316-0.054v35.609l-10.521,0.937
	v-1.617c0-0.743,0.068-1.081,0.409-2.023L263.034,58.473z"/>
<path fill="#7A1600" d="M174.494,50.253V50.05c3.914-1.955,6.139-5.6,6.139-10.047c0.154-5.369-2.484-9.572-4.791-11.96
	c-0.771,0.342-1.707,0.537-2.806,0.537h-16.864c-0.812,0-1.532-0.109-2.166-0.3c-3.509,2.7-5.67,6.882-5.67,11.789
	c0,5.733,2.897,9.981,7.749,11.396l-1.279,3.772l2.493-0.739c2.763-0.741,4.114-1.01,5.462-1.01c4.927,0,8.025,2.358,8.025,6.136
	c0,3.507-3.037,5.796-7.757,5.796c-3.434,0-5.327-0.877-8.898-4.109l-6.204,6.536c5.194,4.789,9.17,6.405,15.78,6.405
	c10.248,0,17.6-5.797,17.6-13.888C181.307,55.645,179.215,52.544,174.494,50.253z M164.582,46.342c-3.777,0-6.202-2.564-6.202-6.472
	c0-3.78,2.494-6.341,6.202-6.341c3.713,0,6.204,2.561,6.204,6.406C170.786,43.777,168.295,46.342,164.582,46.342z"/>
<g>
	<path fill="#7A1600" d="M156.293,27h15.828c4.258,0,6.029-2.803,4.125-6.309c-0.072-0.131-0.133-0.263-0.22-0.398
		c0,0-3.36-5.461-8.887-6.987c-0.154-0.051-0.319-0.097-0.489-0.141h-0.003c-0.208-0.059-0.427-0.1-0.653-0.151
		c-0.034-0.002-0.064-0.01-0.087-0.012c-0.206-0.034-0.412-0.06-0.626-0.077c-0.054-0.011-0.106-0.016-0.154-0.016
		c-0.248-0.025-0.5-0.034-0.763-0.039c-0.022,0-0.036,0-0.059,0l0,0c-0.247,0-0.481,0.008-0.714,0.029c-0.007,0-0.007,0-0.01,0
		c-0.64,0.043-1.225,0.148-1.765,0.304c-5.795,1.375-9.385,7.12-9.385,7.12c-0.116,0.185-0.205,0.361-0.304,0.539
		C150.328,24.282,152.099,27,156.293,27z M156.631,24.179c-4.408-1.533,2.629-6.546,2.629-6.546s1.155,1.64,1.683,5.422
		C160.942,23.055,161.046,25.715,156.631,24.179z M171.888,24.179c-4.413,1.536-4.31-1.124-4.31-1.124
		c0.525-3.782,1.682-5.422,1.682-5.422S176.3,22.646,171.888,24.179z"/>
	<path fill="#7A1600" d="M167.14,8.022c0,2.09-1.36,3.786-3.05,3.786c-1.679,0-3.044-1.696-3.044-3.786
		c0-2.088,1.365-3.785,3.044-3.785C165.779,4.237,167.14,5.934,167.14,8.022z"/>
	<path fill="#7A1600" d="M174.014,9.359c0,2.09-1.364,3.786-3.051,3.786c-1.682,0-3.044-1.696-3.044-3.786
		c0-2.085,1.362-3.788,3.044-3.788C172.649,5.571,174.014,7.273,174.014,9.359z"/>
	<path fill="#7A1600" d="M160.266,9.359c0,2.09-1.357,3.786-3.047,3.786c-1.678,0-3.043-1.696-3.043-3.786
		c0-2.085,1.365-3.788,3.043-3.788C158.908,5.571,160.266,7.273,160.266,9.359z"/>
</g>
</svg>
